# xmcd
#
# Track frame offsets: 
#        150
#        21900
#        82212
#        102422
#        130750
#
# Disc length: 2194 seconds
#
# Revision: 1
# Processed by: cddbd v1.5.2PL0 Copyright (c) Steve Scherf et al.
# Submitted via: ExactAudioCopyFreeDBPlugin 1.0
#
DISCID=3d089005
DTITLE=Joe Farrell - Penny Arcade
DYEAR=1973
DGENRE=Jazz
TTITLE0=Penny Arcade
TTITLE1=Too High
TTITLE2=Hurricane Jane
TTITLE3=Cloud Cream
TTITLE4=Geo Blue
EXTD=YEAR: 1973
EXTT0=
EXTT1=
EXTT2=
EXTT3=
EXTT4=
PLAYORDER=
